<svg xmlns="http://www.w3.org/2000/svg" viewBox="0 0 95.76 95.76"><defs><style>.cls-1{fill:#e1f0f9;}.cls-2{fill:#d2dce6;}.cls-3{fill:#939598;}.cls-4{fill:#f7f7f7;}.cls-5{fill:#808285;}.cls-6{fill:#58595b;}</style></defs><title>Asset 4</title><g id="Layer_2" data-name="Layer 2"><g id="Layer_1-2" data-name="Layer 1"><path class="cls-1" d="M47.88,95.76A47.88,47.88,0,1,0,0,47.88,47.88,47.88,0,0,0,47.88,95.76"/><path class="cls-2" d="M82.09,61.68a7.94,7.94,0,1,0-10.33,7.55,12,12,0,0,1-11.83,10.1H58.84a12,12,0,0,1-12-11.56c10.66-1.3,19-12,19-24.88H65.2V30.42A10.17,10.17,0,0,0,55,20.27h-.2V20a13.83,13.83,0,0,0-3.91-1.29,3,3,0,0,0,0,6,13.83,13.83,0,0,0,3.91-1.29v-.26H55a7.26,7.26,0,0,1,7.26,7.25V42.89h-.78c0,11.4-7.55,20.67-16.84,20.67S27.84,54.29,27.84,42.89h-.78V30.42a7.26,7.26,0,0,1,7.26-7.25h.2v.26a13.83,13.83,0,0,0,3.91,1.29,3,3,0,0,0,0-6A13.83,13.83,0,0,0,34.52,20v.26h-.2A10.17,10.17,0,0,0,24.15,30.42V42.89h-.66c0,12.94,8.35,23.61,19,24.89a16.35,16.35,0,0,0,16.33,15.9h1.09A16.34,16.34,0,0,0,76.14,69.34,7.92,7.92,0,0,0,82.09,61.68Z"/><path class="cls-3" d="M33.52,22.43a13.83,13.83,0,0,0,3.91,1.29,3,3,0,0,0,0-6A13.83,13.83,0,0,0,33.52,19Z"/><path class="cls-3" d="M53.83,19a13.83,13.83,0,0,0-3.91-1.29,3,3,0,0,0,0,6,13.83,13.83,0,0,0,3.91-1.29Z"/><path class="cls-4" d="M33.32,19.27A10.17,10.17,0,0,0,23.15,29.42V41.89h2.91V29.42a7.26,7.26,0,0,1,7.26-7.25h.2v-2.9Z"/><path class="cls-4" d="M54,19.27h-.2v2.9H54a7.26,7.26,0,0,1,7.26,7.25V41.89H64.2V29.42A10.17,10.17,0,0,0,54,19.27Z"/><path class="cls-5" d="M70.92,66.37a12,12,0,0,1-12,12H57.84a12,12,0,0,1-12-11.56c10.66-1.3,19-12,19-24.88H60.51c0,11.4-7.55,20.67-16.84,20.67S26.84,53.29,26.84,41.89H22.49c0,12.94,8.35,23.61,19,24.89a16.35,16.35,0,0,0,16.33,15.9h1.09A16.35,16.35,0,0,0,75.28,66.37Z"/><path class="cls-6" d="M70.77,68.24l3.92,2.45a12.84,12.84,0,0,0,.47-2.34Z"/><path class="cls-4" d="M81.09,60.68a7.94,7.94,0,1,1-7.93-7.91A7.92,7.92,0,0,1,81.09,60.68Z"/><path class="cls-3" d="M73.16,66.06a5.38,5.38,0,1,1,5.39-5.38A5.39,5.39,0,0,1,73.16,66.06Zm0-9.3a3.93,3.93,0,1,0,3.93,3.92A3.94,3.94,0,0,0,73.16,56.76Z"/><path class="cls-6" d="M41.51,66.78h4.36a20.44,20.44,0,0,0,.26,2.1S41.7,67,41.51,66.78Z"/></g></g></svg>
