<svg xmlns="http://www.w3.org/2000/svg" viewBox="0 0 111.45 111.45"><defs><style>.cls-1{fill:#e1f0f9;}.cls-2{fill:#cddbe2;}.cls-3{fill:#fff;}.cls-4{fill:#d1d3d4;}.cls-5{fill:#eb8e4c;}.cls-6{fill:#e6e7e8;}.cls-7{fill:none;stroke:#e77426;stroke-linecap:round;stroke-linejoin:round;stroke-width:1.5px;}.cls-8{fill:#e77426;}</style></defs><title>Asset 5</title><g id="Layer_2" data-name="Layer 2"><g id="Layer_1-2" data-name="Layer 1"><path class="cls-1" d="M100,89.62A55.73,55.73,0,1,1,111.15,49.9,55.53,55.53,0,0,1,100,89.62Z"/><path class="cls-2" d="M84.12,66l-8.88-8.88,8.88-8.88a9.45,9.45,0,0,0,0-13.36L79.29,30a9.45,9.45,0,0,0-13.36,0L57.05,38.9,48.17,30a9.45,9.45,0,0,0-13.36,0L30,34.85a9.45,9.45,0,0,0,0,13.36l8.88,8.88-8.08,8.08-.3.29h0L30,66a9.45,9.45,0,0,0,0,13.36l4.82,4.82a9.45,9.45,0,0,0,13.36,0l8.29-8.28.56.22-.27-.52.3-.3,8.88,8.88a9.45,9.45,0,0,0,13.36,0l4.83-4.82A9.45,9.45,0,0,0,84.12,66Z"/><path class="cls-3" d="M64.61,28.66a9.45,9.45,0,0,1,13.36,0l4.82,4.83a9.45,9.45,0,0,1,0,13.36L46.85,82.79a9.45,9.45,0,0,1-13.36,0L28.66,78a9.45,9.45,0,0,1,0-13.36Z"/><polygon class="cls-4" points="42.95 50.33 55.7 74.73 29.17 64.1 42.95 50.33"/><path class="cls-5" d="M28.66,46.85a9.45,9.45,0,0,1,0-13.36l4.83-4.83a9.45,9.45,0,0,1,13.36,0l35.94,36a9.45,9.45,0,0,1,0,13.36L78,82.79a9.45,9.45,0,0,1-13.36,0Z"/><path class="cls-6" d="M69.16,33.22a1.24,1.24,0,1,1,1.75,0A1.23,1.23,0,0,1,69.16,33.22Z"/><path class="cls-6" d="M64.74,37.64a1.24,1.24,0,1,1,1.76,0A1.24,1.24,0,0,1,64.74,37.64Z"/><path class="cls-6" d="M78.23,42.3a1.24,1.24,0,1,1,1.76,0A1.26,1.26,0,0,1,78.23,42.3Z"/><path class="cls-6" d="M73.81,46.72a1.26,1.26,0,0,1,0-1.76,1.24,1.24,0,0,1,1.76,1.76A1.26,1.26,0,0,1,73.81,46.72Z"/><path class="cls-6" d="M73.66,37.73a1.24,1.24,0,1,1,1.76,0A1.26,1.26,0,0,1,73.66,37.73Z"/><path class="cls-6" d="M69.24,42.15a1.26,1.26,0,0,1,0-1.76A1.24,1.24,0,1,1,71,42.15,1.26,1.26,0,0,1,69.24,42.15Z"/><path class="cls-6" d="M35.56,66.82a1.26,1.26,0,0,1,0-1.76,1.24,1.24,0,0,1,1.76,0,1.24,1.24,0,0,1-1.76,1.76Z"/><path class="cls-6" d="M31.14,71.23a1.24,1.24,0,1,1,1.76-1.75,1.24,1.24,0,0,1-1.76,1.75Z"/><path class="cls-6" d="M44.64,75.89a1.24,1.24,0,0,1,0-1.76,1.24,1.24,0,1,1,1.76,1.76A1.24,1.24,0,0,1,44.64,75.89Z"/><path class="cls-6" d="M40.22,80.31a1.24,1.24,0,0,1,0-1.76A1.24,1.24,0,0,1,42,80.31,1.24,1.24,0,0,1,40.22,80.31Z"/><path class="cls-6" d="M40.07,71.32a1.24,1.24,0,1,1,1.76,0A1.23,1.23,0,0,1,40.07,71.32Z"/><path class="cls-6" d="M35.65,75.74a1.24,1.24,0,0,1,0-1.76,1.24,1.24,0,1,1,1.76,1.76A1.24,1.24,0,0,1,35.65,75.74Z"/><rect class="cls-7" x="47.48" y="42.43" width="15.41" height="26.32" transform="translate(-23.15 55.3) rotate(-45)"/><path class="cls-8" d="M78.23,69.48a1.24,1.24,0,0,1,1.76,0,1.24,1.24,0,1,1-1.76,0Z"/><path class="cls-8" d="M73.81,65.06a1.26,1.26,0,0,1,1.76,0,1.24,1.24,0,0,1,0,1.76,1.24,1.24,0,0,1-1.76-1.76Z"/><path class="cls-8" d="M69.16,78.55a1.24,1.24,0,0,1,1.75,1.76,1.24,1.24,0,1,1-1.75-1.76Z"/><path class="cls-8" d="M64.74,74.14a1.24,1.24,0,1,1,0,1.75A1.24,1.24,0,0,1,64.74,74.14Z"/><path class="cls-8" d="M73.73,74a1.24,1.24,0,0,1,1.75,1.76A1.24,1.24,0,0,1,73.73,74Z"/><path class="cls-8" d="M69.31,69.57a1.24,1.24,0,1,1,0,1.75A1.24,1.24,0,0,1,69.31,69.57Z"/><path class="cls-8" d="M44.64,35.89a1.24,1.24,0,1,1,0,1.75A1.24,1.24,0,0,1,44.64,35.89Z"/><path class="cls-8" d="M40.22,31.46A1.24,1.24,0,0,1,42,33.22a1.24,1.24,0,1,1-1.76-1.76Z"/><path class="cls-8" d="M35.56,45a1.24,1.24,0,0,1,1.76,1.76A1.24,1.24,0,1,1,35.56,45Z"/><path class="cls-8" d="M31.14,40.54a1.26,1.26,0,0,1,1.76,0,1.24,1.24,0,0,1,0,1.76,1.24,1.24,0,1,1-1.76-1.76Z"/><path class="cls-8" d="M40.13,40.39a1.26,1.26,0,0,1,1.76,0,1.24,1.24,0,0,1,0,1.76,1.24,1.24,0,0,1-1.76-1.76Z"/><path class="cls-8" d="M35.71,36a1.26,1.26,0,0,1,1.76,0,1.24,1.24,0,0,1,0,1.76A1.24,1.24,0,0,1,35.71,36Z"/></g></g></svg>
