<?xml version="1.0" encoding="utf-8"?>
<!-- Generator: Adobe Illustrator 24.0.3, SVG Export Plug-In . SVG Version: 6.00 Build 0)  -->
<svg version="1.1" id="Layer_3" xmlns="http://www.w3.org/2000/svg" xmlns:xlink="http://www.w3.org/1999/xlink" x="0px" y="0px"
	 viewBox="0 0 222 48" style="enable-background:new 0 0 222 48;" xml:space="preserve">
<style type="text/css">
	.st0{fill:#FFFFFF;}
</style>
<g>
	<g>
		<g>
			<g>
				<g>
					<polygon class="st0" points="117.6,27.1 117.6,20.6 113.6,20.6 113.6,27.1 113.6,33.8 121.7,33.8 121.7,32.2 117.6,32.2 					
						"/>
					<polygon class="st0" points="78.6,22.3 81.4,22.3 81.4,27 81.4,33.8 85.5,33.8 85.5,27.1 85.5,22.3 88.4,22.3 88.4,20.6 
						78.6,20.6 					"/>
					<path class="st0" d="M73.4,27.1v5.6c-1.1,0.1-2.1-0.2-2.1-1.2v-4.3v-6.5h-3.8v6.5v2.7v1c0,1.5,0.7,2.2,1.6,2.7
						c0.5,0.2,1,0.4,1.4,0.4h6.8v-0.4v-6.4v-6.5h-3.9L73.4,27.1L73.4,27.1z"/>
					<path class="st0" d="M109.4,20.6h-7.3v1.2h4.4c0.4,0,0.6,0.3,0.8,0.5c0.3,0.5,0.2,1.2,0.2,1.2v1.6h-4c-1.1,0-2,1-2,2.3v0.3v2.1
						v1.1c0,1.3,0.5,2.1,1.1,2.6c0.4,0.3,0.8,0.4,1.2,0.4h7.4v-0.4v-5.7V23v-0.6C111.5,21.5,110.6,20.6,109.4,20.6z M107.6,32.7
						c-1.1,0.1-1.9,0-2-1.2c0,0,0-1.9,0-3.6c0-1.1,0.9-1.4,1.9-1.4v1.3V32.7z"/>
					<path class="st0" d="M95.6,27.1v5.6c-1.1,0.1-2.1-0.2-2.1-1.2v-4.3v-6.5h-3.8v6.5v2.7v1c0,1.5,0.7,2.2,1.6,2.7
						c0.5,0.2,1,0.4,1.4,0.4h6.8v-0.4v-6.4v-6.5h-3.9V27.1L95.6,27.1z"/>
					<path class="st0" d="M173.2,20.6h-13.5v2.6v4v6.7h4.1v-6.7v-4v-1.3c1.1,0,2,0.3,2,1.3v4v6.7h4.2v-0.4v-6.3v-4v-1.3
						c1.1,0,2,0.3,2,1.3v4v6.7h4.2v-6.7V23C175.9,22,174.6,20.6,173.2,20.6z"/>
					<polygon class="st0" points="58.9,19.9 57.1,27.1 57,27.7 56.8,27.1 54.8,19.9 53.3,14.2 48,14.2 48,19.9 48,27.1 48,33.8 
						49.8,33.8 49.8,27.1 49.8,19.9 49.8,18.3 50.3,19.9 52.2,27.1 54.1,33.8 57.2,33.8 58.9,27.1 60.7,19.9 61.1,18.3 61.1,19.9 
						61.1,27.1 61.1,33.8 65.4,33.8 65.4,27.1 65.4,19.9 65.4,14.2 60.3,14.2 					"/>
					<path class="st0" d="M157.3,20.6c-0.1-0.2-0.1-0.4-0.2-0.7v0c-0.1-0.4-0.3-0.8-0.4-1.2c-1.4-3.4-4.3-5-8.3-5
						c-4.3-0.1-7.2,2-8.5,5c-0.2,0.4-0.3,0.8-0.4,1.2h0c0,0,0,0.1,0,0.1c-0.2,0.7-0.3,1.5-0.4,2.3c-0.2,1.2-0.2,2.6-0.1,3.7
						c0,0.4,0.1,0.7,0.2,1h0c0.1,0.8,0.3,1.6,0.6,2.1c0.1,0.2,0.1,0.4,0.2,0.5c1.1,1.9,2.3,3,3.8,3.6c1.4,0.6,2.9,0.9,4.7,0.8
						c1.5,0,2.8-0.3,4-0.8c1.4-0.6,2.6-1.5,3.5-2.6c0.3-0.3,0.4-0.7,0.6-1.1c0.6-1.2,0.9-3.4,0.9-3.7c0.1-1.2,0.1-2.6,0-3.7
						C157.5,21.7,157.4,21.1,157.3,20.6z M152.6,27.1c0,0.9-0.1,1.8-0.3,2.7c-0.4,1.9-1.5,3.4-4,3.4c-2.6,0-3.8-1.3-4.2-3.4
						c-0.1-0.8-0.2-1.7-0.2-2.7v0c0-0.3,0-0.7,0-1v-2.1v-1.6c0-0.9,0-1.7,0-2.4c0-0.4,0.1-0.8,0.1-1.2c0.3-2.4,1.2-3.8,4.3-3.8
						c2.7,0,3.7,1.6,4.1,3.8c0.1,0.4,0.1,0.8,0.1,1.2v0c0,0.8,0,1.6,0,2.5v1.5V26C152.6,26.4,152.6,26.7,152.6,27.1L152.6,27.1
						L152.6,27.1z"/>
					<path class="st0" d="M133.2,19.9L133.2,19.9c-0.5,0.6-0.7,1.1-0.7,1.1h-5.3c-0.8-0.1-1.3-0.2-2.2,0.1c-2,0.6-2.6,2-3,3
						c-0.4,0.8-0.4,1.8,0.3,2.6c0.1,0.1,0.3,0.3,0.5,0.4l0,0c1.2,0.8,3.4,0.7,4.8,0l0,0c0.1,0,0.2-0.1,0.2-0.1
						c1.1-0.7,2.1-2.6,1.6-4.6c0-0.1,0-0.2,0-0.3h2.7c0,0-0.1,0.1-0.2,0.3c-0.3,0.7-1,2.3-1.6,3.7c-0.1,0.4-0.3,0.7-0.5,1.1l0,0
						c-0.1,0.3-0.3,0.5-0.4,0.7c-0.5,0.8-1.3,2.6-3.3,3.3c-1.8,0.6-3.7-0.5-3.7-0.5l-0.1,1c0.3,0.2,0.5,0.2,0.6,0.3
						c0.2,0.1,0.4,0.1,0.9,0.2c2.1,0.5,5-0.9,6.4-2.3c0.4-0.4,1-1,1.9-2.7l0,0c0.1-0.3,0.3-0.6,0.5-1.1c0.2-0.4,0.4-0.8,0.5-1.3
						c0.5-1.1,0.9-2.7,0.9-2.7h3.5l0.3-1.1h-3.3c0.1-0.4,0.2-0.7,0.4-1.1l0,0c0.3-0.5,0.5-1.1,0.7-1.2c0.4-0.5,0.7-1.2,2.2-1.1v-1
						c-1.5,0.4-2.5,1-3.3,1.7C133.9,18.9,133.5,19.5,133.2,19.9z M126.7,24.9c-0.2,0.5-0.4,0.8-0.6,1.1c-0.5,0.6-1,1-1.6,0.8
						c-0.5-0.1-0.8-0.4-0.8-0.8c0-0.5,0.2-1,0.5-1.5c0.2-0.5,1.1-2.2,1.1-2.2c0.2-0.3,0.5-0.5,0.8-0.5c0.7-0.1,1.2,0.1,1.3,0.5
						C127.6,23.2,127.1,24,126.7,24.9z"/>
					<path class="st0" d="M185.8,20.6h-7.3v1.2h4.4c0.4,0,0.6,0.3,0.8,0.5c0.3,0.5,0.2,1.9,0.2,1.9v1H180c-1.1,0-2,1-2,2.3v0.3v2.1
						v1.1c0,1.3,0.5,2.1,1.1,2.6c0.4,0.3,0.8,0.4,1.2,0.4h7.4v-0.4v-5.7V23v-0.6C187.8,21.5,187,20.6,185.8,20.6z M183.9,32.7
						c-1.1,0.1-1.9,0-2-1.2c0,0,0-1.9,0-3.6c0-1.1,0.9-1.4,1.9-1.4v1.3L183.9,32.7L183.9,32.7z"/>
					<path class="st0" d="M210.2,20.6H203v1.2h4.4c0.4,0,0.6,0.3,0.8,0.5c0.3,0.5,0.2,1.9,0.2,1.9v1h-4c-1.1,0-2,1-2,2.3v0.3v2.1
						v1.1c0,1.3,0.5,2.1,1.1,2.6c0.4,0.3,0.8,0.4,1.2,0.4h7.4v-0.4v-5.7V23v-0.6C212.3,21.5,211.4,20.6,210.2,20.6z M208.4,32.7
						c-1.1,0.1-1.9,0-2-1.2c0,0,0-1.9,0-3.6c0-1.1,0.9-1.4,1.9-1.4v1.3L208.4,32.7L208.4,32.7z"/>
					<polygon class="st0" points="196.2,22.4 196.2,24.7 196.2,25.2 194.1,25.2 194.1,24.7 194.1,22.4 194.1,20.6 189.9,20.6 
						189.9,22.4 189.9,24.7 189.9,25.7 189.9,29.8 189.9,33.4 189.9,33.8 194.1,33.8 194.1,33.4 194.1,29.8 194.1,26.8 196.2,26.8 
						196.2,29.8 196.2,33.4 196.2,33.8 200.4,33.8 200.4,33.4 200.4,29.8 200.4,25.7 200.4,24.7 200.4,22.4 200.4,20.6 196.2,20.6 
											"/>
				</g>
			</g>
			<g>
				<path class="st0" d="M214.3,20.6c-0.5,0-0.8,0.4-0.8,0.8c0,0.5,0.4,0.8,0.8,0.8c0.5,0,0.8-0.4,0.8-0.8
					C215.2,20.9,214.8,20.6,214.3,20.6L214.3,20.6z M214.3,22.1c-0.4,0-0.6-0.3-0.6-0.6c0-0.4,0.3-0.6,0.6-0.6
					c0.4,0,0.6,0.3,0.6,0.6C215,21.8,214.7,22.1,214.3,22.1L214.3,22.1z"/>
				<path class="st0" d="M214.5,21.2c0,0,0,0.1,0,0.1c0,0-0.1,0-0.2,0h-0.1v-0.3h0.1c0,0,0.1,0,0.1,0
					C214.5,21.1,214.5,21.2,214.5,21.2L214.5,21.2z M214.7,21.9c0,0-0.1-0.1-0.1-0.2c0,0,0-0.1-0.1-0.1l0-0.1c0.2,0,0.3-0.1,0.3-0.2
					c0-0.1,0-0.1-0.1-0.2c0,0-0.1,0-0.2,0h-0.3v0.9h0.1v-0.4h0.1c0,0,0.1,0.1,0.2,0.3C214.6,21.8,214.6,21.9,214.7,21.9L214.7,21.9
					L214.7,21.9z"/>
			</g>
		</g>
	</g>
	<g>
		<path class="st0" d="M37.2,13.7c-1.3-0.4-2.7-0.6-4.1-0.6c-1.1,0-2.1,0.1-3.1,0.4c0.9,0.5,1.3,1.2,1.5,1.5c4,0.3,7.6,2.2,10.1,5.1
			c-0.6-3-1.9-5-2.2-5.5C39.4,14.4,38.2,14,37.2,13.7z M26.4,16c0.5-0.5,1.8-1.6,2.6-0.5l0,0c0.1,0.2,0,0.1-0.3,0.1c0,0,0,0-0.1,0
			c-0.4,0-0.9,0.5-1.1,1.2C27.2,16.5,26.8,16.2,26.4,16L26.4,16z M23.2,19.2c-1.4,0.9-2.2,0.9-3.4,1c-0.2,0-0.2-0.3-0.1-0.4
			c0.3-0.2,0.1-0.5,0.3-1c0.1-0.3,0.3-0.4,0.6-0.4c0.7,0,1.8,0.2,2.5,0.5C23.3,18.9,23.3,19.1,23.2,19.2z M31.6,7.2
			c-2.5-1.2-5.3-1.9-8.2-1.9C13.2,5.2,4.8,13.4,4.6,23.6c-0.1,6,2.6,11.3,6.9,14.9c0.9,0.7,1.9,1.4,2.9,2c0,0,0,0,0.1,0
			c2.7,1.5,5.7,2.2,8.9,2.2c0.4,0,0.9,0,1.3,0c0-0.3,0-0.7,0-1.1c0-2.3,0.9-4.3,2.2-5.9c1.5-1.9,2.9-4,3.7-6.4
			c0-0.1,0.1-0.3,0.1-0.4c0.5-1.7,0.8-3.6,0.7-5.4c0-0.2,0-0.5,0-0.7c0-0.2,0-0.7-0.1-0.7c0,0-0.1,0.4-0.1,0.5S31.1,23,31,23.2
			c-0.1,0.4-0.2,0.7-0.3,1.1c-0.5,1.2-1.1,2.5-2,3.5c-1.1,1.3-2.1,2.2-3.1,3.2c-1.6,1.4-2.7,3.3-3.1,5.4c-0.3-0.7-0.4-1.4-0.4-2.2
			c0-1.7,0.5-3.3,1.3-4.8c-3.4,1.6-5.7,5.1-5.7,9c0,0.6,0,1.3,0.2,1.9v0C11.1,38,6.1,31.5,6.1,23.9C6,14.4,13.7,6.7,23.3,6.7
			c1.1,0,2.5,0.1,3.5,0.4c0.1,0-5.8,1.1-6.6,6.2c0,0-0.1,0-0.1,0c-1-2.4,0.6-4.3,1.4-4.9c0,0-4.5,2.1-2.7,7.3c0,0,0,0,0,0
			c-0.2,0.1-0.3,0.1-0.5,0.1c-2.4,0.7-2.8,3.8-3.2,4.1c-0.8,0.6-2.3,1.3-3.1,1.9c-0.3,0.2-0.9,1.1-1.1,1.6c0,0.2,0.1,0.5,0.3,0.5
			c0.4,0,0.4-0.4,1-0.4c0.6,0,0.8,0.4,1.5,0.5c0.4,0,0.7-0.2,1.1-0.2c0.3,0,0.6,0,0.8,0.2c0.1,0.1,0.3,0.5,0.4,0.8
			c0,0.1,0,0.2-0.1,0.2c-0.5-0.1-1.1-0.3-1.6-0.1c-1,0.3-1.4,0.5-1.5,2.2c0,0.3,0.4,1,1.4,1.6c1.3,0.8,2.6,1.1,3.9,1.1
			c0.5,0,1,0,1.5-0.1c1.6-0.3,1.5-2.6,1.5-2.6c0.5,0.2,2.1,0.2,2.1,0.2c4.3,0.1,4.8-5.3,4.3-7.1c0.7,0.6,1.1,1.6,1.1,2.7
			c0,0.5-0.1,1.1-0.3,1.5c-0.1,0.2-0.2,0.4-0.2,0.5c0.9-1,1.5-2.4,1.5-3.8c0-0.7-0.1-1.3-0.3-1.9c0-0.1-0.1-0.2-0.1-0.3l0,0
			c0.9-0.4,1.5-1.3,1.5-2.4c0-1.1-0.6-2-1.6-2.4c-1.5-0.5-2.4,0.1-3.1,0.6c-0.3,0.2-0.5,0.5-0.8,0.7c0,0-0.1,0.1-0.2,0
			c0,0-0.1,0-0.2,0c-0.1,0-0.1-0.1-0.1-0.2c0,0,1.1-6.5,12.2-3.9c-0.8-1-2.1-2-2.7-2.5c-2-0.3-8.3-0.4-11.3,4.2c0,0-0.1,0-0.1,0
			c0.3-4.6,7.1-5.5,9-5.6L31.6,7.2z"/>
		<path class="st0" d="M42,23.5c-2.8-2.3-6.1-4.2-9.6-5.5l0,0c3.8,2.4,6.3,6.6,6.3,11.4c0,2.7-0.5,5.3-1.7,7.3
			C42.5,30.8,42,23.7,42,23.5z"/>
		<path class="st0" d="M34.7,25.6C34.7,25.5,34.6,25.6,34.7,25.6c0.2,6.8-4.7,10.2-6.4,15c0,0-0.3,1.1-0.4,1.6
			c2.2-0.5,4.1-1.4,6-2.7c0.1-0.6,0.3-1.4,0.5-2.1l0,0C35.1,33.4,36,28.1,34.7,25.6z"/>
		<path class="st0" d="M10.9,24.9c-0.3,0.4-0.3,0.9-0.3,1.4c0,0.3,0.1,0.7,0.2,1c0,0.2,0.1,0.4,0.2,0.6c0.1,0.2,0.2,0.7,0.3,0.7
			c0.1,0,0.2-0.3,0.3-0.5c0.2-0.4,0.4-1.2,0.4-1.6c0-0.8-0.1-2-0.7-2C11.2,24.6,11,24.9,10.9,24.9z"/>
		<path class="st0" d="M15.8,34L15.8,34L15.8,34c0,0,0.1-1.1,2.8-3.1c0,0,0-0.1,0,0c-1.4,0.2-2.8-0.3-3.7-0.7
			c-0.7-0.3-1.9-1.2-2.3-2c-0.1,0.2-0.3,0.7-0.4,1.3c0,0.3,0.1,1,0.1,1c0,0.4,0.3,0.8,0.5,1.2c0.1,0.1,0.2,0.3,0.3,0.5
			c0.1,0.1,0.1,0,0.1,0c0-0.2,0-0.7,0.1-0.9C13.7,31.7,14.8,33.3,15.8,34z"/>
	</g>
</g>
</svg>
